<svg width="35" height="35" viewBox="0 0 35 35" fill="none" xmlns="http://www.w3.org/2000/svg">
<path fill-rule="evenodd" clip-rule="evenodd" d="M10.5735 6.801C11.8418 4.91062 14.0339 2.91666 17.5002 2.91666C20.9665 2.91666 23.1586 4.91062 24.427 6.801C25.6776 8.66503 26.1412 10.5691 26.208 10.8611C26.2174 10.9022 26.2242 10.9364 26.2287 10.9599L28.4668 22.5003C28.9905 25.2004 26.9223 27.7083 24.1719 27.7083H10.8286C8.07814 27.7083 6.00993 25.2004 6.53359 22.5003L8.77173 10.9599C8.7763 10.9364 8.78305 10.9022 8.79246 10.8611C8.85926 10.5691 9.32278 8.66503 10.5735 6.801Z" fill="black"/>
<path d="M12.4158 29.1667C12.7832 29.8677 13.3459 30.6004 14.1991 31.1605C15.0884 31.7443 16.2066 32.0833 17.568 32.0833C18.9292 32.0833 20.0474 31.7443 20.9367 31.1605C21.7898 30.6004 22.3526 29.8677 22.7201 29.1667H12.4158Z" fill="black"/>
<circle cx="26" cy="8" r="4" fill="#FF0000" stroke="#D9D9D9" stroke-width="2"/>
</svg>
